<svg height="512" viewBox="0 0 512 512" width="512" xmlns="http://www.w3.org/2000/svg"><g id="flat"><g fill="#d18d28"><path d="m256 80a8 8 0 0 1 -8-8v-48a8 8 0 0 1 16 0v48a8 8 0 0 1 -8 8z"/><path d="m272 48h-32a8 8 0 0 1 0-16h32a8 8 0 0 1 0 16z"/><path d="m256 192a120 120 0 0 1 120 120v80a0 0 0 0 1 0 0h-240a0 0 0 0 1 0 0v-80a120 120 0 0 1 120-120z"/></g><path d="m272 316.44v75.56h160l30.39-39.07a93.283 93.283 0 0 0 18.15-73.97 64.115 64.115 0 0 0 -55.98-52.23 64.146 64.146 0 0 0 -44.6 11.74l-21.27 15.36z" fill="#fbb540"/><path d="m272 316.44v75.56h104l19.18-34.52a75.294 75.294 0 0 0 -.79-74.52 65.345 65.345 0 0 0 -35.7-29.13z" fill="#ea9d2d"/><circle cx="256" cy="344" fill="#e82f3e" r="24"/><path d="m240 316.44v75.56h-160l-30.39-39.07a93.283 93.283 0 0 1 -18.15-73.97 64.115 64.115 0 0 1 55.98-52.23 64.146 64.146 0 0 1 44.6 11.74l21.27 15.36z" fill="#fbb540"/><circle cx="256" cy="96" fill="#ea9d2d" r="24"/><path d="m272 144h-32a308.809 308.809 0 0 1 -19.663 108.434l-4.337 11.566 40 16 40-16-4.337-11.566a308.809 308.809 0 0 1 -19.663-108.434z" fill="#d18d28"/><path d="m272.42 160h-32.84q.42-7.98.42-16h32q0 8.01.42 16z" fill="#c38325"/><rect fill="#ea9d2d" height="32" rx="16" width="64" x="224" y="112"/><circle cx="256" cy="240" fill="#ea9d2d" r="48"/><path d="m80 392h352v96h-352z" fill="#d18d28"/><path d="m80 416h352v48h-352z" fill="#ea9d2d"/><path d="m240 316.44v75.56h-104l-19.18-34.52a75.294 75.294 0 0 1 .79-74.52 65.345 65.345 0 0 1 35.7-29.13z" fill="#ea9d2d"/><path d="m360 392 19.175-34.515a75.316 75.316 0 0 0 -.782-74.525 65.67 65.67 0 0 0 -91.98-22.314 65.671 65.671 0 0 0 -30.413 55.403v75.951z" fill="#fbb540"/><circle cx="384" cy="328" fill="#0292c9" r="24"/><path d="m152 392-19.175-34.515a75.316 75.316 0 0 1 .782-74.525 65.67 65.67 0 0 1 91.98-22.314 65.671 65.671 0 0 1 30.413 55.403v75.951z" fill="#fbb540"/><circle cx="256" cy="344" fill="#e82f3e" r="24"/><circle cx="128" cy="328" fill="#0292c9" r="24"/></g></svg>